<?xml version="1.0" encoding="UTF-8" standalone="no"?>
<!-- Created with Inkscape (http://www.inkscape.org/) -->

<svg
   xmlns:svg="http://www.w3.org/2000/svg"
   xmlns="http://www.w3.org/2000/svg"
   version="1.1"
   width="719.13702"
   height="90.288002"
   viewBox="0 0 719.13702 90.288002"
   id="Layer_1"
   xml:space="preserve"><defs
   id="defs77" />




<g
   transform="translate(-36.932,-446.664)"
   id="g27">
	<polygon
   points="96.364,481.512 69.371,502.103 86.795,502.103 84.552,516.36 65.543,516.36 73.265,467.255 119.202,467.255 101.877,446.664 71.78,446.664 48.448,467.255 36.932,536.951 108.212,536.951 116.957,481.512 "
   id="polygon29"
   style="fill:#000099" />
	<polygon
   points="96.959,487.848 86.202,495.768 95.705,495.768 91.448,522.695 58.184,522.695 67.952,460.919 105.968,460.919 99.302,452.999 72.374,452.999 55.841,468.839 45.843,530.615 101.282,530.615 108.046,487.848 "
   id="polygon31"
   style="fill:#ffffff" />
</g>
<g
   transform="translate(-36.932,-446.664)"
   id="g33">
	<polygon
   points="490.78,481.512 463.787,502.103 481.211,502.103 478.968,516.36 459.959,516.36 467.681,467.255 513.618,467.255 496.293,446.664 466.196,446.664 442.864,467.255 431.348,536.951 502.628,536.951 511.373,481.512 "
   id="polygon35"
   style="fill:#000099" />
	<polygon
   points="491.375,487.848 480.618,495.768 490.122,495.768 485.864,522.695 452.6,522.695 462.368,460.919 500.384,460.919 493.718,452.999 466.79,452.999 450.257,468.839 440.257,530.615 495.698,530.615 502.462,487.848 "
   id="polygon37"
   style="fill:#ffffff" />
</g>
<g
   transform="translate(-36.932,-446.664)"
   id="g39">
	<path
   d="m 190.581,536.951 15.839,-90.287 h -49.104 l -25.443,20.591 h 42.768 l -2.245,14.257 h -22.175 l -25.41,20.591 -5.511,34.849 h 71.281 z m -21.418,-34.848 -2.243,14.258 h -17.425 l 2.245,-14.258 h 17.423 z"
   id="path41"
   style="fill:#000099" />
	<polygon
   points="179.327,487.848 152.398,487.848 132.73,505.271 128.211,530.615 163.057,530.615 164.313,522.695 140.552,522.695 144.809,495.768 178.073,495.768 172.563,530.615 183.65,530.615 195.927,452.999 159.495,452.999 150.32,460.919 183.584,460.919 "
   id="polygon43"
   style="fill:#ffffff" />
</g>
<g
   transform="translate(-36.932,-446.664)"
   id="g45">
	<path
   d="m 659.444,536.951 15.84,-90.287 H 626.18 l -25.443,20.591 h 42.769 l -2.245,14.257 h -22.176 l -25.41,20.591 -5.511,34.849 h 71.28 z m -21.417,-34.848 -2.245,14.258 h -17.423 l 2.244,-14.258 h 17.424 z"
   id="path47"
   style="fill:#000099" />
	<polygon
   points="648.19,487.848 621.263,487.848 601.595,505.271 597.073,530.615 631.922,530.615 633.177,522.695 609.416,522.695 613.673,495.768 646.938,495.768 641.427,530.615 652.515,530.615 664.79,452.999 628.357,452.999 619.184,460.919 652.448,460.919 "
   id="polygon49"
   style="fill:#ffffff" />
</g>
<g
   transform="translate(-36.932,-446.664)"
   id="g51">
	<polygon
   points="352.247,516.36 354.491,502.103 394.091,502.103 397.325,481.512 357.725,481.512 359.97,467.255 399.569,467.255 402.836,446.664 358.484,446.664 335.153,467.255 323.636,536.951 388.581,536.951 391.847,516.36 "
   id="polygon53"
   style="fill:#000099" />
	<polygon
   points="344.888,522.695 349.145,495.768 387.161,495.768 388.415,487.848 350.398,487.848 354.655,460.919 392.671,460.919 393.927,452.999 362.247,452.999 342.545,470.423 332.546,530.615 381.65,530.615 382.904,522.695 "
   id="polygon55"
   style="fill:#ffffff" />
</g>
<g
   transform="translate(-36.932,-446.664)"
   id="g57">
	<polygon
   points="542.327,516.36 544.571,502.103 584.172,502.103 587.405,481.512 547.806,481.512 550.048,467.255 589.648,467.255 592.916,446.664 548.564,446.664 525.232,467.255 513.716,536.951 578.66,536.951 581.927,516.36 "
   id="polygon59"
   style="fill:#000099" />
	<polygon
   points="534.968,522.695 539.225,495.768 577.241,495.768 578.494,487.848 540.479,487.848 544.735,460.919 582.752,460.919 584.006,452.999 552.327,452.999 532.625,470.423 522.627,530.615 571.73,530.615 572.984,522.695 "
   id="polygon61"
   style="fill:#ffffff" />
</g>
<g
   transform="translate(-36.932,-446.664)"
   id="g63">
	<path
   d="m 721.979,502.103 -5.511,34.849 h 25.345 l 5.246,-31.68 -10.823,-11.881 14.586,-13.463 5.247,-33.264 h -49.104 l -24.917,20.591 -11.516,69.696 h 25.345 l 5.511,-34.849 h 20.591 z m 5.478,-34.848 -2.244,14.257 h -20.592 l 2.243,-14.257 h 20.593 z"
   id="path65"
   style="fill:#000099" />
	<path
   d="m 689.44,470.423 -9.997,60.192 h 11.087 l 5.511,-34.848 h 33.264 l -5.511,34.848 h 11.088 l 4.258,-23.76 -9.835,-11.088 1.254,-7.92 12.344,-9.504 4.255,-25.345 h -38.015 l -19.703,17.425 z m 41.119,17.425 h -33.264 l 4.257,-26.929 h 33.264 l -4.257,26.929 z"
   id="path67"
   style="fill:#ffffff" />
</g>
<g
   transform="translate(-36.932,-446.664)"
   id="g69">
	<polygon
   points="255.425,467.255 244.436,536.951 271.364,536.951 282.354,467.255 296.609,467.255 285.62,536.951 312.548,536.951 326.804,446.664 238.1,446.664 213.186,468.839 201.668,536.951 228.596,536.951 239.585,467.255 "
   id="polygon71"
   style="fill:#000099" />
	<polygon
   points="264.368,460.919 253.346,530.615 264.434,530.615 275.456,460.919 305.552,460.919 294.53,530.615 305.618,530.615 317.895,452.999 240.278,452.999 220.577,470.423 210.579,530.615 221.666,530.615 232.688,460.919 "
   id="polygon73"
   style="fill:#ffffff" />
</g>
</svg>