<?xml version="1.0" encoding="UTF-8" standalone="no"?>
<!DOCTYPE svg PUBLIC "-//W3C//DTD SVG 1.1//EN" "http://www.w3.org/Graphics/SVG/1.1/DTD/svg11.dtd">
<svg width="100%" height="100%" viewBox="0 0 294 200" version="1.1" xmlns="http://www.w3.org/2000/svg" xmlns:xlink="http://www.w3.org/1999/xlink" xml:space="preserve" xmlns:serif="http://www.serif.com/" style="fill-rule:evenodd;clip-rule:evenodd;stroke-linejoin:round;stroke-miterlimit:2;">
    <g id="Background">
        <g transform="matrix(1.01344,0,0,1.21346,-1.3311,-39.8416)">
            <rect x="1.338" y="171.281" width="290.06" height="26.364" style="fill:white;"/>
        </g>
        <g transform="matrix(0.98387,0,0,0.934635,-0.45839,11.3179)">
            <rect x="0.498" y="-12.073" width="298.777" height="179.704"/>
        </g>
    </g>
    <g id="Mega-Drive" serif:id="Mega Drive" transform="matrix(0.986099,0,0,0.996935,1.57878,-2.37843)">
        <path id="E" d="M76,175L76,180.5L61.907,180.5C61.479,180.5 61.072,180.684 60.792,181.004C60.206,181.674 59.162,182.866 58.459,183.67C58.329,183.819 58.299,184.028 58.381,184.207C58.464,184.385 58.644,184.5 58.843,184.5C62.808,184.5 76.046,184.5 76.046,184.5L73,189L58.5,189L58.5,194L76.01,194L76,199L49.5,199L49.5,183.039C49.5,182.366 49.727,181.711 50.145,181.18C51.123,179.935 52.985,177.564 54.098,176.148C54.667,175.424 55.543,175 56.47,175C61.244,175 76,175 76,175Z"/>
        <path id="V" d="M240.5,175.001L240.493,183L248,193.977L256,183L256,175.005L264,175.019L264,185L253,199L242,199L232.5,185L232.5,175L240.5,175.001Z"/>
        <path id="I" d="M230,175L230.015,199.006L221,198.955L221,174.996L230,175Z"/>
        <path id="R" d="M188,199L188,174.952C188,174.952 205.84,174.988 210.432,174.998C211.102,174.999 211.73,175.321 212.118,175.861C213.027,177.126 214.721,179.485 215.715,180.87C216.191,181.532 216.22,182.411 215.79,183.103C214.41,185.322 211.5,190 211.5,190L218,199L208,199.025L199,186L204,186C204,186 205.319,184.242 206.208,183.056C206.664,182.449 206.603,181.603 206.065,181.065C205.785,180.785 205.499,180.499 205.294,180.294C205.106,180.106 204.849,180 204.582,180C202.751,180 195.526,180 195.526,180L195.5,199L188,199Z"/>
        <path id="D" d="M155,174.973C155,174.973 173.669,174.991 178.414,174.996C179.092,174.997 179.725,175.334 180.098,175.894C181.434,177.899 184.68,182.769 186.395,185.342C187.065,186.348 187.065,187.652 186.395,188.658C184.677,191.235 181.424,196.114 180.092,198.112C179.722,198.666 179.096,199 178.425,199C173.699,199 155,199 155,199L155,174.973ZM163.5,180L163.5,194L172.527,194C172.825,194 173.107,193.864 173.291,193.631C174.071,192.642 176.234,189.898 177.514,188.274C178.094,187.539 178.096,186.508 177.518,185.77C176.246,184.145 174.096,181.399 173.304,180.389C173.112,180.143 172.817,180 172.503,180C170.549,180 163.5,180 163.5,180Z"/>
        <path id="A" d="M110.5,199L119,199L119,180.5L120.957,180.5C121.295,180.5 121.61,180.671 121.793,180.953C122.932,182.712 127,189 127,189L119,189L119,190.667L121,194L130,194L134,199L143,198.979C143,198.979 131.714,181.5 128.403,176.371C127.84,175.501 126.867,174.974 125.823,174.975C121.538,174.979 110.527,174.991 110.527,174.991L110.5,199Z"/>
        <path id="G" d="M105,175.032L105,180.5L90.058,180.5C89.71,180.5 89.385,180.673 89.193,180.961C88.567,181.9 87.162,184.007 86.672,184.741C86.56,184.91 86.5,185.108 86.5,185.31C86.5,186.57 86.5,191.348 86.5,193.472C86.5,193.744 86.61,194.006 86.805,194.199C87,194.392 87.264,194.5 87.54,194.5C89.991,194.5 96.106,194.5 98.509,194.5C98.771,194.5 99.024,194.397 99.21,194.213C99.396,194.029 99.5,193.779 99.5,193.519C99.5,192.644 99.5,191.37 99.5,190.492C99.5,190.229 99.394,189.977 99.206,189.79C99.018,189.604 98.763,189.5 98.497,189.5C96.784,189.5 93.477,189.5 93.477,189.5L96.5,184.515L107,184.5L107,197.025C107,197.549 106.79,198.051 106.415,198.422C106.041,198.792 105.533,199 105.004,199C99.705,199 85.329,199 80.012,199C78.901,199 78,198.109 78,197.01C78,193.265 78,185.299 78,182.499C78,181.851 78.215,181.221 78.611,180.705C79.478,179.578 81.071,177.508 82.081,176.195C82.66,175.442 83.562,175.001 84.518,175.002C89.496,175.01 105,175.032 105,175.032Z"/>
        <g id="E1" serif:id="E" transform="matrix(1,0,0,1,218,0)">
            <path d="M76,175L76,180.5L61.907,180.5C61.479,180.5 61.072,180.684 60.792,181.004C60.206,181.674 59.162,182.866 58.459,183.67C58.329,183.819 58.299,184.028 58.381,184.207C58.464,184.385 58.644,184.5 58.843,184.5C62.808,184.5 76.046,184.5 76.046,184.5L73,189L58.5,189L58.5,194L76.01,194L76,199L49.5,199L49.5,183.039C49.5,182.366 49.727,181.711 50.145,181.18C51.123,179.935 52.985,177.564 54.098,176.148C54.667,175.424 55.543,175 56.47,175C61.244,175 76,175 76,175Z"/>
        </g>
        <path id="M" d="M27.993,179.54L30.112,176.366C30.667,175.535 31.6,175.035 32.599,175.032L45.5,175L45.5,199.013L37,198.98L37,182.012C37,181.736 36.776,181.512 36.5,181.512L35.796,181.518C35.494,181.518 35.213,181.671 35.049,181.924L24,199L15,199L26.622,181.5L21.755,181.5C21.454,181.5 21.173,181.653 21.009,181.906L10,199L0.972,199L16.085,176.365C16.639,175.534 17.571,175.034 18.569,175.031L28,175L27.993,179.54Z"/>
    </g>
    <g id="Audio-and-Visual" serif:id="Audio and Visual">
        <g transform="matrix(0.989783,0,0,1.05183,4.34009,-2.7379)">
            <g transform="matrix(10,0,0,10,36.9475,142.128)">
                <path d="M0.444,-0.294L0.335,-0.611L0.22,-0.294L0.444,-0.294ZM0.285,-0.717L0.395,-0.717L0.655,-0L0.548,-0L0.476,-0.215L0.192,-0.215L0.114,-0L0.015,-0L0.285,-0.717Z" style="fill:white;fill-rule:nonzero;"/>
            </g>
            <g transform="matrix(10,0,0,10,43.6174,142.128)">
                <path d="M0.182,-0.717L0.182,-0.274C0.182,-0.222 0.191,-0.179 0.211,-0.144C0.24,-0.092 0.289,-0.066 0.357,-0.066C0.44,-0.066 0.496,-0.094 0.525,-0.15C0.541,-0.181 0.549,-0.222 0.549,-0.274L0.549,-0.717L0.648,-0.717L0.648,-0.314C0.648,-0.226 0.636,-0.158 0.612,-0.111C0.569,-0.024 0.486,0.019 0.365,0.019C0.244,0.019 0.162,-0.024 0.119,-0.111C0.095,-0.158 0.083,-0.226 0.083,-0.314L0.083,-0.717L0.182,-0.717Z" style="fill:white;fill-rule:nonzero;"/>
            </g>
            <g transform="matrix(10,0,0,10,50.8391,142.128)">
                <path d="M0.352,-0.083C0.384,-0.083 0.411,-0.086 0.433,-0.093C0.47,-0.106 0.501,-0.13 0.525,-0.167C0.545,-0.195 0.558,-0.233 0.567,-0.278C0.572,-0.305 0.574,-0.33 0.574,-0.353C0.574,-0.442 0.557,-0.511 0.521,-0.56C0.486,-0.609 0.429,-0.634 0.351,-0.634L0.178,-0.634L0.178,-0.083L0.352,-0.083ZM0.081,-0.717L0.371,-0.717C0.47,-0.717 0.546,-0.682 0.601,-0.612C0.649,-0.549 0.673,-0.468 0.673,-0.37C0.673,-0.293 0.659,-0.225 0.63,-0.163C0.58,-0.054 0.493,-0 0.37,-0L0.081,-0L0.081,-0.717Z" style="fill:white;fill-rule:nonzero;"/>
            </g>
            <g transform="matrix(10,0,0,10,58.0608,142.128)">
                <rect x="0.098" y="-0.717" width="0.098" height="0.717" style="fill:white;"/>
            </g>
            <g transform="matrix(10,0,0,10,60.8391,142.128)">
                <path d="M0.386,-0.737C0.512,-0.737 0.606,-0.696 0.667,-0.615C0.715,-0.551 0.738,-0.47 0.738,-0.371C0.738,-0.264 0.711,-0.175 0.657,-0.104C0.593,-0.021 0.502,0.021 0.384,0.021C0.273,0.021 0.187,-0.015 0.124,-0.088C0.067,-0.159 0.039,-0.248 0.039,-0.355C0.039,-0.452 0.063,-0.535 0.111,-0.604C0.173,-0.693 0.265,-0.737 0.386,-0.737ZM0.396,-0.066C0.481,-0.066 0.543,-0.097 0.581,-0.158C0.62,-0.219 0.639,-0.29 0.639,-0.37C0.639,-0.454 0.617,-0.522 0.573,-0.573C0.528,-0.625 0.468,-0.65 0.392,-0.65C0.317,-0.65 0.257,-0.625 0.21,-0.574C0.163,-0.523 0.14,-0.448 0.14,-0.349C0.14,-0.269 0.16,-0.202 0.2,-0.148C0.24,-0.093 0.305,-0.066 0.396,-0.066Z" style="fill:white;fill-rule:nonzero;"/>
            </g>
            <g transform="matrix(10,0,0,10,71.3974,142.128)">
                <path d="M0.444,-0.294L0.335,-0.611L0.22,-0.294L0.444,-0.294ZM0.285,-0.717L0.395,-0.717L0.655,-0L0.548,-0L0.476,-0.215L0.192,-0.215L0.114,-0L0.015,-0L0.285,-0.717Z" style="fill:white;fill-rule:nonzero;"/>
            </g>
            <g transform="matrix(10,0,0,10,78.0674,142.128)">
                <path d="M0.076,-0.717L0.191,-0.717L0.553,-0.136L0.553,-0.717L0.646,-0.717L0.646,-0L0.537,-0L0.169,-0.581L0.169,-0L0.076,-0L0.076,-0.717Z" style="fill:white;fill-rule:nonzero;"/>
            </g>
            <g transform="matrix(10,0,0,10,85.289,142.128)">
                <path d="M0.352,-0.083C0.384,-0.083 0.411,-0.086 0.433,-0.093C0.47,-0.106 0.501,-0.13 0.525,-0.167C0.545,-0.195 0.558,-0.233 0.567,-0.278C0.572,-0.305 0.574,-0.33 0.574,-0.353C0.574,-0.442 0.557,-0.511 0.521,-0.56C0.486,-0.609 0.429,-0.634 0.351,-0.634L0.178,-0.634L0.178,-0.083L0.352,-0.083ZM0.081,-0.717L0.371,-0.717C0.47,-0.717 0.546,-0.682 0.601,-0.612C0.649,-0.549 0.673,-0.468 0.673,-0.37C0.673,-0.293 0.659,-0.225 0.63,-0.163C0.58,-0.054 0.493,-0 0.37,-0L0.081,-0L0.081,-0.717Z" style="fill:white;fill-rule:nonzero;"/>
            </g>
            <g transform="matrix(10,0,0,10,95.2907,142.128)">
                <path d="M0.133,-0.717L0.339,-0.106L0.542,-0.717L0.651,-0.717L0.39,-0L0.287,-0L0.025,-0.717L0.133,-0.717Z" style="fill:white;fill-rule:nonzero;"/>
            </g>
            <g transform="matrix(10,0,0,10,101.961,142.128)">
                <rect x="0.098" y="-0.717" width="0.098" height="0.717" style="fill:white;"/>
            </g>
            <g transform="matrix(10,0,0,10,104.739,142.128)">
                <path d="M0.14,-0.231C0.142,-0.191 0.152,-0.158 0.168,-0.132C0.201,-0.085 0.257,-0.061 0.339,-0.061C0.375,-0.061 0.409,-0.066 0.438,-0.077C0.496,-0.097 0.525,-0.133 0.525,-0.185C0.525,-0.224 0.513,-0.252 0.489,-0.269C0.464,-0.285 0.425,-0.299 0.373,-0.311L0.275,-0.333C0.212,-0.347 0.167,-0.363 0.141,-0.38C0.095,-0.41 0.072,-0.455 0.072,-0.515C0.072,-0.579 0.095,-0.632 0.139,-0.673C0.184,-0.715 0.247,-0.735 0.329,-0.735C0.404,-0.735 0.468,-0.717 0.52,-0.681C0.573,-0.645 0.599,-0.587 0.599,-0.507L0.508,-0.507C0.503,-0.545 0.493,-0.575 0.477,-0.595C0.447,-0.633 0.397,-0.651 0.326,-0.651C0.268,-0.651 0.227,-0.639 0.202,-0.615C0.177,-0.591 0.165,-0.563 0.165,-0.531C0.165,-0.496 0.179,-0.47 0.208,-0.454C0.228,-0.444 0.271,-0.431 0.339,-0.415L0.439,-0.392C0.488,-0.381 0.525,-0.366 0.552,-0.347C0.597,-0.313 0.62,-0.264 0.62,-0.201C0.62,-0.121 0.591,-0.064 0.533,-0.03C0.476,0.004 0.409,0.021 0.332,0.021C0.243,0.021 0.173,-0.002 0.123,-0.047C0.072,-0.093 0.047,-0.154 0.048,-0.231L0.14,-0.231Z" style="fill:white;fill-rule:nonzero;"/>
            </g>
            <g transform="matrix(10,0,0,10,111.409,142.128)">
                <path d="M0.182,-0.717L0.182,-0.274C0.182,-0.222 0.191,-0.179 0.211,-0.144C0.24,-0.092 0.289,-0.066 0.357,-0.066C0.44,-0.066 0.496,-0.094 0.525,-0.15C0.541,-0.181 0.549,-0.222 0.549,-0.274L0.549,-0.717L0.648,-0.717L0.648,-0.314C0.648,-0.226 0.636,-0.158 0.612,-0.111C0.569,-0.024 0.486,0.019 0.365,0.019C0.244,0.019 0.162,-0.024 0.119,-0.111C0.095,-0.158 0.083,-0.226 0.083,-0.314L0.083,-0.717L0.182,-0.717Z" style="fill:white;fill-rule:nonzero;"/>
            </g>
            <g transform="matrix(10,0,0,10,118.631,142.128)">
                <path d="M0.444,-0.294L0.335,-0.611L0.22,-0.294L0.444,-0.294ZM0.285,-0.717L0.395,-0.717L0.655,-0L0.548,-0L0.476,-0.215L0.192,-0.215L0.114,-0L0.015,-0L0.285,-0.717Z" style="fill:white;fill-rule:nonzero;"/>
            </g>
            <g transform="matrix(10,0,0,10,125.3,142.128)">
                <path d="M0.076,-0.717L0.173,-0.717L0.173,-0.085L0.537,-0.085L0.537,-0L0.076,-0L0.076,-0.717Z" style="fill:white;fill-rule:nonzero;"/>
            </g>
            <g transform="matrix(10,0,0,10,133.642,142.128)">
                <rect x="0.098" y="-0.717" width="0.098" height="0.717" style="fill:white;"/>
            </g>
            <g transform="matrix(10,0,0,10,136.42,142.128)">
                <path d="M0.076,-0.717L0.191,-0.717L0.553,-0.136L0.553,-0.717L0.646,-0.717L0.646,-0L0.537,-0L0.169,-0.581L0.169,-0L0.076,-0L0.076,-0.717Z" style="fill:white;fill-rule:nonzero;"/>
            </g>
            <g transform="matrix(10,0,0,10,143.642,142.128)">
                <path d="M0.598,-0.717L0.598,-0.632L0.356,-0.632L0.356,-0L0.258,-0L0.258,-0.632L0.016,-0.632L0.016,-0.717L0.598,-0.717Z" style="fill:white;fill-rule:nonzero;"/>
            </g>
            <g transform="matrix(10,0,0,10,149.75,142.128)">
                <path d="M0.085,-0.717L0.608,-0.717L0.608,-0.629L0.18,-0.629L0.18,-0.412L0.576,-0.412L0.576,-0.329L0.18,-0.329L0.18,-0.085L0.616,-0.085L0.616,-0L0.085,-0L0.085,-0.717Z" style="fill:white;fill-rule:nonzero;"/>
            </g>
            <g transform="matrix(10,0,0,10,156.42,142.128)">
                <path d="M0.076,-0.717L0.173,-0.717L0.173,-0.085L0.537,-0.085L0.537,-0L0.076,-0L0.076,-0.717Z" style="fill:white;fill-rule:nonzero;"/>
            </g>
            <g transform="matrix(10,0,0,10,161.982,142.128)">
                <path d="M0.076,-0.717L0.173,-0.717L0.173,-0.085L0.537,-0.085L0.537,-0L0.076,-0L0.076,-0.717Z" style="fill:white;fill-rule:nonzero;"/>
            </g>
            <g transform="matrix(10,0,0,10,167.543,142.128)">
                <rect x="0.098" y="-0.717" width="0.098" height="0.717" style="fill:white;"/>
            </g>
            <g transform="matrix(10,0,0,10,170.322,142.128)">
                <path d="M0.386,-0.736C0.454,-0.736 0.512,-0.723 0.561,-0.697C0.632,-0.659 0.676,-0.594 0.692,-0.5L0.596,-0.5C0.584,-0.552 0.56,-0.591 0.523,-0.615C0.486,-0.638 0.44,-0.65 0.384,-0.65C0.317,-0.65 0.261,-0.625 0.216,-0.576C0.171,-0.526 0.148,-0.452 0.148,-0.353C0.148,-0.268 0.167,-0.198 0.204,-0.145C0.242,-0.091 0.303,-0.064 0.387,-0.064C0.452,-0.064 0.506,-0.083 0.548,-0.121C0.591,-0.158 0.612,-0.219 0.613,-0.303L0.389,-0.303L0.389,-0.384L0.704,-0.384L0.704,-0L0.641,-0L0.618,-0.092C0.585,-0.056 0.556,-0.031 0.53,-0.017C0.488,0.007 0.433,0.019 0.368,0.019C0.283,0.019 0.21,-0.008 0.148,-0.063C0.082,-0.132 0.048,-0.227 0.048,-0.348C0.048,-0.468 0.081,-0.563 0.146,-0.634C0.208,-0.702 0.288,-0.736 0.386,-0.736Z" style="fill:white;fill-rule:nonzero;"/>
            </g>
            <g transform="matrix(10,0,0,10,178.1,142.128)">
                <path d="M0.085,-0.717L0.608,-0.717L0.608,-0.629L0.18,-0.629L0.18,-0.412L0.576,-0.412L0.576,-0.329L0.18,-0.329L0.18,-0.085L0.616,-0.085L0.616,-0L0.085,-0L0.085,-0.717Z" style="fill:white;fill-rule:nonzero;"/>
            </g>
            <g transform="matrix(10,0,0,10,184.77,142.128)">
                <path d="M0.076,-0.717L0.191,-0.717L0.553,-0.136L0.553,-0.717L0.646,-0.717L0.646,-0L0.537,-0L0.169,-0.581L0.169,-0L0.076,-0L0.076,-0.717Z" style="fill:white;fill-rule:nonzero;"/>
            </g>
            <g transform="matrix(10,0,0,10,191.992,142.128)">
                <path d="M0.598,-0.717L0.598,-0.632L0.356,-0.632L0.356,-0L0.258,-0L0.258,-0.632L0.016,-0.632L0.016,-0.717L0.598,-0.717Z" style="fill:white;fill-rule:nonzero;"/>
            </g>
            <g transform="matrix(10,0,0,10,200.88,142.128)">
                <path d="M0.598,-0.717L0.598,-0.632L0.356,-0.632L0.356,-0L0.258,-0L0.258,-0.632L0.016,-0.632L0.016,-0.717L0.598,-0.717Z" style="fill:white;fill-rule:nonzero;"/>
            </g>
            <g transform="matrix(10,0,0,10,206.988,142.128)">
                <path d="M0.085,-0.717L0.608,-0.717L0.608,-0.629L0.18,-0.629L0.18,-0.412L0.576,-0.412L0.576,-0.329L0.18,-0.329L0.18,-0.085L0.616,-0.085L0.616,-0L0.085,-0L0.085,-0.717Z" style="fill:white;fill-rule:nonzero;"/>
            </g>
            <g transform="matrix(10,0,0,10,213.658,142.128)">
                <path d="M0.41,-0.389C0.455,-0.389 0.491,-0.398 0.518,-0.416C0.544,-0.434 0.558,-0.467 0.558,-0.515C0.558,-0.566 0.539,-0.601 0.502,-0.619C0.482,-0.629 0.456,-0.634 0.422,-0.634L0.185,-0.634L0.185,-0.389L0.41,-0.389ZM0.088,-0.717L0.42,-0.717C0.475,-0.717 0.52,-0.709 0.555,-0.693C0.623,-0.663 0.656,-0.606 0.656,-0.524C0.656,-0.481 0.647,-0.446 0.63,-0.418C0.612,-0.391 0.587,-0.369 0.555,-0.353C0.583,-0.341 0.604,-0.326 0.618,-0.308C0.633,-0.289 0.64,-0.259 0.642,-0.217L0.646,-0.121C0.646,-0.094 0.649,-0.073 0.652,-0.06C0.658,-0.037 0.669,-0.023 0.684,-0.016L0.684,-0L0.564,-0C0.561,-0.006 0.559,-0.014 0.557,-0.024C0.555,-0.034 0.553,-0.053 0.552,-0.081L0.546,-0.2C0.544,-0.247 0.526,-0.278 0.494,-0.294C0.475,-0.303 0.446,-0.308 0.406,-0.308L0.185,-0.308L0.185,-0L0.088,-0L0.088,-0.717Z" style="fill:white;fill-rule:nonzero;"/>
            </g>
            <g transform="matrix(10,0,0,10,220.88,142.128)">
                <path d="M0.074,-0.717L0.213,-0.717L0.419,-0.111L0.624,-0.717L0.761,-0.717L0.761,-0L0.669,-0L0.669,-0.423C0.669,-0.438 0.669,-0.462 0.67,-0.496C0.671,-0.53 0.671,-0.566 0.671,-0.605L0.466,-0L0.37,-0L0.164,-0.605L0.164,-0.583C0.164,-0.565 0.164,-0.539 0.165,-0.503C0.166,-0.467 0.167,-0.44 0.167,-0.423L0.167,-0L0.074,-0L0.074,-0.717Z" style="fill:white;fill-rule:nonzero;"/>
            </g>
            <g transform="matrix(10,0,0,10,229.21,142.128)">
                <rect x="0.098" y="-0.717" width="0.098" height="0.717" style="fill:white;"/>
            </g>
            <g transform="matrix(10,0,0,10,231.988,142.128)">
                <path d="M0.076,-0.717L0.191,-0.717L0.553,-0.136L0.553,-0.717L0.646,-0.717L0.646,-0L0.537,-0L0.169,-0.581L0.169,-0L0.076,-0L0.076,-0.717Z" style="fill:white;fill-rule:nonzero;"/>
            </g>
            <g transform="matrix(10,0,0,10,239.21,142.128)">
                <path d="M0.444,-0.294L0.335,-0.611L0.22,-0.294L0.444,-0.294ZM0.285,-0.717L0.395,-0.717L0.655,-0L0.548,-0L0.476,-0.215L0.192,-0.215L0.114,-0L0.015,-0L0.285,-0.717Z" style="fill:white;fill-rule:nonzero;"/>
            </g>
            <g transform="matrix(10,0,0,10,245.88,142.128)">
                <path d="M0.076,-0.717L0.173,-0.717L0.173,-0.085L0.537,-0.085L0.537,-0L0.076,-0L0.076,-0.717Z" style="fill:white;fill-rule:nonzero;"/>
            </g>
        </g>
        <g transform="matrix(0.969484,0,0,1.05567,2.2207,-1.11306)">
            <g transform="matrix(10,0,0,10,65.0329,151.461)">
                <path d="M0.079,-0.717L0.177,-0.717L0.177,-0.421L0.55,-0.421L0.55,-0.717L0.648,-0.717L0.648,-0L0.55,-0L0.55,-0.335L0.177,-0.335L0.177,-0L0.079,-0L0.079,-0.717Z" style="fill:white;fill-rule:nonzero;"/>
            </g>
            <g transform="matrix(10,0,0,10,72.2546,151.461)">
                <rect x="0.098" y="-0.717" width="0.098" height="0.717" style="fill:white;"/>
            </g>
            <g transform="matrix(10,0,0,10,75.0329,151.461)">
                <path d="M0.386,-0.736C0.454,-0.736 0.512,-0.723 0.561,-0.697C0.632,-0.659 0.676,-0.594 0.692,-0.5L0.596,-0.5C0.584,-0.552 0.56,-0.591 0.523,-0.615C0.486,-0.638 0.44,-0.65 0.384,-0.65C0.317,-0.65 0.261,-0.625 0.216,-0.576C0.171,-0.526 0.148,-0.452 0.148,-0.353C0.148,-0.268 0.167,-0.198 0.204,-0.145C0.242,-0.091 0.303,-0.064 0.387,-0.064C0.452,-0.064 0.506,-0.083 0.548,-0.121C0.591,-0.158 0.612,-0.219 0.613,-0.303L0.389,-0.303L0.389,-0.384L0.704,-0.384L0.704,-0L0.641,-0L0.618,-0.092C0.585,-0.056 0.556,-0.031 0.53,-0.017C0.488,0.007 0.433,0.019 0.368,0.019C0.283,0.019 0.21,-0.008 0.148,-0.063C0.082,-0.132 0.048,-0.227 0.048,-0.348C0.048,-0.468 0.081,-0.563 0.146,-0.634C0.208,-0.702 0.288,-0.736 0.386,-0.736Z" style="fill:white;fill-rule:nonzero;"/>
            </g>
            <g transform="matrix(10,0,0,10,82.8112,151.461)">
                <path d="M0.079,-0.717L0.177,-0.717L0.177,-0.421L0.55,-0.421L0.55,-0.717L0.648,-0.717L0.648,-0L0.55,-0L0.55,-0.335L0.177,-0.335L0.177,-0L0.079,-0L0.079,-0.717Z" style="fill:white;fill-rule:nonzero;"/>
            </g>
            <g transform="matrix(10,0,0,10,92.8129,151.461)">
                <path d="M0.386,-0.736C0.454,-0.736 0.512,-0.723 0.561,-0.697C0.632,-0.659 0.676,-0.594 0.692,-0.5L0.596,-0.5C0.584,-0.552 0.56,-0.591 0.523,-0.615C0.486,-0.638 0.44,-0.65 0.384,-0.65C0.317,-0.65 0.261,-0.625 0.216,-0.576C0.171,-0.526 0.148,-0.452 0.148,-0.353C0.148,-0.268 0.167,-0.198 0.204,-0.145C0.242,-0.091 0.303,-0.064 0.387,-0.064C0.452,-0.064 0.506,-0.083 0.548,-0.121C0.591,-0.158 0.612,-0.219 0.613,-0.303L0.389,-0.303L0.389,-0.384L0.704,-0.384L0.704,-0L0.641,-0L0.618,-0.092C0.585,-0.056 0.556,-0.031 0.53,-0.017C0.488,0.007 0.433,0.019 0.368,0.019C0.283,0.019 0.21,-0.008 0.148,-0.063C0.082,-0.132 0.048,-0.227 0.048,-0.348C0.048,-0.468 0.081,-0.563 0.146,-0.634C0.208,-0.702 0.288,-0.736 0.386,-0.736Z" style="fill:white;fill-rule:nonzero;"/>
            </g>
            <g transform="matrix(10,0,0,10,100.591,151.461)">
                <path d="M0.41,-0.389C0.455,-0.389 0.491,-0.398 0.518,-0.416C0.544,-0.434 0.558,-0.467 0.558,-0.515C0.558,-0.566 0.539,-0.601 0.502,-0.619C0.482,-0.629 0.456,-0.634 0.422,-0.634L0.185,-0.634L0.185,-0.389L0.41,-0.389ZM0.088,-0.717L0.42,-0.717C0.475,-0.717 0.52,-0.709 0.555,-0.693C0.623,-0.663 0.656,-0.606 0.656,-0.524C0.656,-0.481 0.647,-0.446 0.63,-0.418C0.612,-0.391 0.587,-0.369 0.555,-0.353C0.583,-0.341 0.604,-0.326 0.618,-0.308C0.633,-0.289 0.64,-0.259 0.642,-0.217L0.646,-0.121C0.646,-0.094 0.649,-0.073 0.652,-0.06C0.658,-0.037 0.669,-0.023 0.684,-0.016L0.684,-0L0.564,-0C0.561,-0.006 0.559,-0.014 0.557,-0.024C0.555,-0.034 0.553,-0.053 0.552,-0.081L0.546,-0.2C0.544,-0.247 0.526,-0.278 0.494,-0.294C0.475,-0.303 0.446,-0.308 0.406,-0.308L0.185,-0.308L0.185,-0L0.088,-0L0.088,-0.717Z" style="fill:white;fill-rule:nonzero;"/>
            </g>
            <g transform="matrix(10,0,0,10,107.813,151.461)">
                <path d="M0.444,-0.294L0.335,-0.611L0.22,-0.294L0.444,-0.294ZM0.285,-0.717L0.395,-0.717L0.655,-0L0.548,-0L0.476,-0.215L0.192,-0.215L0.114,-0L0.015,-0L0.285,-0.717Z" style="fill:white;fill-rule:nonzero;"/>
            </g>
            <g transform="matrix(10,0,0,10,114.483,151.461)">
                <path d="M0.352,-0.083C0.384,-0.083 0.411,-0.086 0.433,-0.093C0.47,-0.106 0.501,-0.13 0.525,-0.167C0.545,-0.195 0.558,-0.233 0.567,-0.278C0.572,-0.305 0.574,-0.33 0.574,-0.353C0.574,-0.442 0.557,-0.511 0.521,-0.56C0.486,-0.609 0.429,-0.634 0.351,-0.634L0.178,-0.634L0.178,-0.083L0.352,-0.083ZM0.081,-0.717L0.371,-0.717C0.47,-0.717 0.546,-0.682 0.601,-0.612C0.649,-0.549 0.673,-0.468 0.673,-0.37C0.673,-0.293 0.659,-0.225 0.63,-0.163C0.58,-0.054 0.493,-0 0.37,-0L0.081,-0L0.081,-0.717Z" style="fill:white;fill-rule:nonzero;"/>
            </g>
            <g transform="matrix(10,0,0,10,121.704,151.461)">
                <path d="M0.085,-0.717L0.608,-0.717L0.608,-0.629L0.18,-0.629L0.18,-0.412L0.576,-0.412L0.576,-0.329L0.18,-0.329L0.18,-0.085L0.616,-0.085L0.616,-0L0.085,-0L0.085,-0.717Z" style="fill:white;fill-rule:nonzero;"/>
            </g>
            <g transform="matrix(10,0,0,10,131.154,151.461)">
                <path d="M0.074,-0.717L0.213,-0.717L0.419,-0.111L0.624,-0.717L0.761,-0.717L0.761,-0L0.669,-0L0.669,-0.423C0.669,-0.438 0.669,-0.462 0.67,-0.496C0.671,-0.53 0.671,-0.566 0.671,-0.605L0.466,-0L0.37,-0L0.164,-0.605L0.164,-0.583C0.164,-0.565 0.164,-0.539 0.165,-0.503C0.166,-0.467 0.167,-0.44 0.167,-0.423L0.167,-0L0.074,-0L0.074,-0.717Z" style="fill:white;fill-rule:nonzero;"/>
            </g>
            <g transform="matrix(10,0,0,10,139.484,151.461)">
                <path d="M0.182,-0.717L0.182,-0.274C0.182,-0.222 0.191,-0.179 0.211,-0.144C0.24,-0.092 0.289,-0.066 0.357,-0.066C0.44,-0.066 0.496,-0.094 0.525,-0.15C0.541,-0.181 0.549,-0.222 0.549,-0.274L0.549,-0.717L0.648,-0.717L0.648,-0.314C0.648,-0.226 0.636,-0.158 0.612,-0.111C0.569,-0.024 0.486,0.019 0.365,0.019C0.244,0.019 0.162,-0.024 0.119,-0.111C0.095,-0.158 0.083,-0.226 0.083,-0.314L0.083,-0.717L0.182,-0.717Z" style="fill:white;fill-rule:nonzero;"/>
            </g>
            <g transform="matrix(10,0,0,10,146.706,151.461)">
                <path d="M0.076,-0.717L0.173,-0.717L0.173,-0.085L0.537,-0.085L0.537,-0L0.076,-0L0.076,-0.717Z" style="fill:white;fill-rule:nonzero;"/>
            </g>
            <g transform="matrix(10,0,0,10,152.268,151.461)">
                <path d="M0.598,-0.717L0.598,-0.632L0.356,-0.632L0.356,-0L0.258,-0L0.258,-0.632L0.016,-0.632L0.016,-0.717L0.598,-0.717Z" style="fill:white;fill-rule:nonzero;"/>
            </g>
            <g transform="matrix(10,0,0,10,158.376,151.461)">
                <rect x="0.098" y="-0.717" width="0.098" height="0.717" style="fill:white;"/>
            </g>
            <g transform="matrix(10,0,0,10,161.154,151.461)">
                <path d="M0.085,-0.717L0.408,-0.717C0.472,-0.717 0.523,-0.699 0.563,-0.663C0.602,-0.627 0.621,-0.577 0.621,-0.512C0.621,-0.456 0.604,-0.407 0.569,-0.365C0.534,-0.324 0.48,-0.303 0.408,-0.303L0.183,-0.303L0.183,-0L0.085,-0L0.085,-0.717ZM0.523,-0.511C0.523,-0.564 0.503,-0.6 0.464,-0.619C0.443,-0.629 0.413,-0.634 0.376,-0.634L0.183,-0.634L0.183,-0.385L0.376,-0.385C0.42,-0.385 0.455,-0.395 0.482,-0.413C0.509,-0.432 0.523,-0.464 0.523,-0.511Z" style="fill:white;fill-rule:nonzero;"/>
            </g>
            <g transform="matrix(10,0,0,10,167.824,151.461)">
                <path d="M0.182,-0.717L0.182,-0.274C0.182,-0.222 0.191,-0.179 0.211,-0.144C0.24,-0.092 0.289,-0.066 0.357,-0.066C0.44,-0.066 0.496,-0.094 0.525,-0.15C0.541,-0.181 0.549,-0.222 0.549,-0.274L0.549,-0.717L0.648,-0.717L0.648,-0.314C0.648,-0.226 0.636,-0.158 0.612,-0.111C0.569,-0.024 0.486,0.019 0.365,0.019C0.244,0.019 0.162,-0.024 0.119,-0.111C0.095,-0.158 0.083,-0.226 0.083,-0.314L0.083,-0.717L0.182,-0.717Z" style="fill:white;fill-rule:nonzero;"/>
            </g>
            <g transform="matrix(10,0,0,10,175.046,151.461)">
                <path d="M0.41,-0.389C0.455,-0.389 0.491,-0.398 0.518,-0.416C0.544,-0.434 0.558,-0.467 0.558,-0.515C0.558,-0.566 0.539,-0.601 0.502,-0.619C0.482,-0.629 0.456,-0.634 0.422,-0.634L0.185,-0.634L0.185,-0.389L0.41,-0.389ZM0.088,-0.717L0.42,-0.717C0.475,-0.717 0.52,-0.709 0.555,-0.693C0.623,-0.663 0.656,-0.606 0.656,-0.524C0.656,-0.481 0.647,-0.446 0.63,-0.418C0.612,-0.391 0.587,-0.369 0.555,-0.353C0.583,-0.341 0.604,-0.326 0.618,-0.308C0.633,-0.289 0.64,-0.259 0.642,-0.217L0.646,-0.121C0.646,-0.094 0.649,-0.073 0.652,-0.06C0.658,-0.037 0.669,-0.023 0.684,-0.016L0.684,-0L0.564,-0C0.561,-0.006 0.559,-0.014 0.557,-0.024C0.555,-0.034 0.553,-0.053 0.552,-0.081L0.546,-0.2C0.544,-0.247 0.526,-0.278 0.494,-0.294C0.475,-0.303 0.446,-0.308 0.406,-0.308L0.185,-0.308L0.185,-0L0.088,-0L0.088,-0.717Z" style="fill:white;fill-rule:nonzero;"/>
            </g>
            <g transform="matrix(10,0,0,10,182.268,151.461)">
                <path d="M0.085,-0.717L0.408,-0.717C0.472,-0.717 0.523,-0.699 0.563,-0.663C0.602,-0.627 0.621,-0.577 0.621,-0.512C0.621,-0.456 0.604,-0.407 0.569,-0.365C0.534,-0.324 0.48,-0.303 0.408,-0.303L0.183,-0.303L0.183,-0L0.085,-0L0.085,-0.717ZM0.523,-0.511C0.523,-0.564 0.503,-0.6 0.464,-0.619C0.443,-0.629 0.413,-0.634 0.376,-0.634L0.183,-0.634L0.183,-0.385L0.376,-0.385C0.42,-0.385 0.455,-0.395 0.482,-0.413C0.509,-0.432 0.523,-0.464 0.523,-0.511Z" style="fill:white;fill-rule:nonzero;"/>
            </g>
            <g transform="matrix(10,0,0,10,188.938,151.461)">
                <path d="M0.386,-0.737C0.512,-0.737 0.606,-0.696 0.667,-0.615C0.715,-0.551 0.738,-0.47 0.738,-0.371C0.738,-0.264 0.711,-0.175 0.657,-0.104C0.593,-0.021 0.502,0.021 0.384,0.021C0.273,0.021 0.187,-0.015 0.124,-0.088C0.067,-0.159 0.039,-0.248 0.039,-0.355C0.039,-0.452 0.063,-0.535 0.111,-0.604C0.173,-0.693 0.265,-0.737 0.386,-0.737ZM0.396,-0.066C0.481,-0.066 0.543,-0.097 0.581,-0.158C0.62,-0.219 0.639,-0.29 0.639,-0.37C0.639,-0.454 0.617,-0.522 0.573,-0.573C0.528,-0.625 0.468,-0.65 0.392,-0.65C0.317,-0.65 0.257,-0.625 0.21,-0.574C0.163,-0.523 0.14,-0.448 0.14,-0.349C0.14,-0.269 0.16,-0.202 0.2,-0.148C0.24,-0.093 0.305,-0.066 0.396,-0.066Z" style="fill:white;fill-rule:nonzero;"/>
            </g>
            <g transform="matrix(10,0,0,10,196.716,151.461)">
                <path d="M0.14,-0.231C0.142,-0.191 0.152,-0.158 0.168,-0.132C0.201,-0.085 0.257,-0.061 0.339,-0.061C0.375,-0.061 0.409,-0.066 0.438,-0.077C0.496,-0.097 0.525,-0.133 0.525,-0.185C0.525,-0.224 0.513,-0.252 0.489,-0.269C0.464,-0.285 0.425,-0.299 0.373,-0.311L0.275,-0.333C0.212,-0.347 0.167,-0.363 0.141,-0.38C0.095,-0.41 0.072,-0.455 0.072,-0.515C0.072,-0.579 0.095,-0.632 0.139,-0.673C0.184,-0.715 0.247,-0.735 0.329,-0.735C0.404,-0.735 0.468,-0.717 0.52,-0.681C0.573,-0.645 0.599,-0.587 0.599,-0.507L0.508,-0.507C0.503,-0.545 0.493,-0.575 0.477,-0.595C0.447,-0.633 0.397,-0.651 0.326,-0.651C0.268,-0.651 0.227,-0.639 0.202,-0.615C0.177,-0.591 0.165,-0.563 0.165,-0.531C0.165,-0.496 0.179,-0.47 0.208,-0.454C0.228,-0.444 0.271,-0.431 0.339,-0.415L0.439,-0.392C0.488,-0.381 0.525,-0.366 0.552,-0.347C0.597,-0.313 0.62,-0.264 0.62,-0.201C0.62,-0.121 0.591,-0.064 0.533,-0.03C0.476,0.004 0.409,0.021 0.332,0.021C0.243,0.021 0.173,-0.002 0.123,-0.047C0.072,-0.093 0.047,-0.154 0.048,-0.231L0.14,-0.231Z" style="fill:white;fill-rule:nonzero;"/>
            </g>
            <g transform="matrix(10,0,0,10,203.386,151.461)">
                <path d="M0.085,-0.717L0.608,-0.717L0.608,-0.629L0.18,-0.629L0.18,-0.412L0.576,-0.412L0.576,-0.329L0.18,-0.329L0.18,-0.085L0.616,-0.085L0.616,-0L0.085,-0L0.085,-0.717Z" style="fill:white;fill-rule:nonzero;"/>
            </g>
            <g transform="matrix(10,0,0,10,212.836,151.461)">
                <path d="M0.182,-0.717L0.182,-0.274C0.182,-0.222 0.191,-0.179 0.211,-0.144C0.24,-0.092 0.289,-0.066 0.357,-0.066C0.44,-0.066 0.496,-0.094 0.525,-0.15C0.541,-0.181 0.549,-0.222 0.549,-0.274L0.549,-0.717L0.648,-0.717L0.648,-0.314C0.648,-0.226 0.636,-0.158 0.612,-0.111C0.569,-0.024 0.486,0.019 0.365,0.019C0.244,0.019 0.162,-0.024 0.119,-0.111C0.095,-0.158 0.083,-0.226 0.083,-0.314L0.083,-0.717L0.182,-0.717Z" style="fill:white;fill-rule:nonzero;"/>
            </g>
            <g transform="matrix(10,0,0,10,220.057,151.461)">
                <path d="M0.14,-0.231C0.142,-0.191 0.152,-0.158 0.168,-0.132C0.201,-0.085 0.257,-0.061 0.339,-0.061C0.375,-0.061 0.409,-0.066 0.438,-0.077C0.496,-0.097 0.525,-0.133 0.525,-0.185C0.525,-0.224 0.513,-0.252 0.489,-0.269C0.464,-0.285 0.425,-0.299 0.373,-0.311L0.275,-0.333C0.212,-0.347 0.167,-0.363 0.141,-0.38C0.095,-0.41 0.072,-0.455 0.072,-0.515C0.072,-0.579 0.095,-0.632 0.139,-0.673C0.184,-0.715 0.247,-0.735 0.329,-0.735C0.404,-0.735 0.468,-0.717 0.52,-0.681C0.573,-0.645 0.599,-0.587 0.599,-0.507L0.508,-0.507C0.503,-0.545 0.493,-0.575 0.477,-0.595C0.447,-0.633 0.397,-0.651 0.326,-0.651C0.268,-0.651 0.227,-0.639 0.202,-0.615C0.177,-0.591 0.165,-0.563 0.165,-0.531C0.165,-0.496 0.179,-0.47 0.208,-0.454C0.228,-0.444 0.271,-0.431 0.339,-0.415L0.439,-0.392C0.488,-0.381 0.525,-0.366 0.552,-0.347C0.597,-0.313 0.62,-0.264 0.62,-0.201C0.62,-0.121 0.591,-0.064 0.533,-0.03C0.476,0.004 0.409,0.021 0.332,0.021C0.243,0.021 0.173,-0.002 0.123,-0.047C0.072,-0.093 0.047,-0.154 0.048,-0.231L0.14,-0.231Z" style="fill:white;fill-rule:nonzero;"/>
            </g>
            <g transform="matrix(10,0,0,10,226.727,151.461)">
                <path d="M0.085,-0.717L0.608,-0.717L0.608,-0.629L0.18,-0.629L0.18,-0.412L0.576,-0.412L0.576,-0.329L0.18,-0.329L0.18,-0.085L0.616,-0.085L0.616,-0L0.085,-0L0.085,-0.717Z" style="fill:white;fill-rule:nonzero;"/>
            </g>
        </g>
    </g>
    <g id="MD">
        <path d="M148.017,130.992L9,130.965L85.015,19.042L85.034,111L148.022,19.008L148.017,130.992Z" style="fill:rgb(255,0,0);"/>
        <path d="M164.039,130.975L201.044,130.978L201,20L164,20.018L164.039,130.975Z" style="fill:rgb(25,147,50);"/>
        <path d="M215.938,20.343L209.177,58.016C208.16,57.956 207.101,57.957 206,58.027L206,20C209.455,19.919 212.768,20.039 215.938,20.343ZM211.722,58.309L221.699,21.122C225.216,21.741 228.536,22.599 231.66,23.671L214.472,58.985C213.601,58.704 212.684,58.477 211.722,58.309ZM216.23,59.649L237.422,25.985C240.775,27.542 243.859,29.366 246.675,31.413L218.867,61.075C218.051,60.538 217.171,60.06 216.23,59.649ZM220.656,62.426L251.535,35.406C254.156,37.834 256.477,40.482 258.5,43.297L222.731,64.566C222.111,63.803 221.42,63.086 220.656,62.426ZM223.853,66.12L261.618,48.181C263.276,51.12 264.645,54.194 265.725,57.356L225.198,68.666C224.823,67.786 224.374,66.934 223.853,66.12ZM225.957,70.826L267.392,63.292C268.102,66.487 268.532,69.738 268.683,73L226.422,73C226.313,72.268 226.158,71.541 225.957,70.826ZM226.452,78.044L268.696,78C267.566,105.38 246.731,131.945 206,130.993L206,92.998C218.732,93.218 225.349,85.989 226.452,78.044Z" style="fill:rgb(25,147,50);"/>
    </g>
</svg>
