<?xml version="1.0" encoding="UTF-8" standalone="no"?>
<!-- Created with Inkscape (http://www.inkscape.org/) -->

<svg
   xmlns:dc="http://purl.org/dc/elements/1.1/"
   xmlns:cc="http://creativecommons.org/ns#"
   xmlns:rdf="http://www.w3.org/1999/02/22-rdf-syntax-ns#"
   xmlns:svg="http://www.w3.org/2000/svg"
   xmlns="http://www.w3.org/2000/svg"
   xmlns:sodipodi="http://sodipodi.sourceforge.net/DTD/sodipodi-0.dtd"
   xmlns:inkscape="http://www.inkscape.org/namespaces/inkscape"
   width="57mm"
   height="15mm"
   viewBox="0 0 201.96852 53.149586"
   id="svg2"
   version="1.1"
   inkscape:version="0.91 r13725"
   sodipodi:docname="Neo Geo (Old)].svg">
  <defs
     id="defs4" />
  <sodipodi:namedview
     id="base"
     pagecolor="#ffffff"
     bordercolor="#666666"
     borderopacity="1.0"
     inkscape:pageopacity="0.0"
     inkscape:pageshadow="2"
     inkscape:zoom="0.35"
     inkscape:cx="-1281.4151"
     inkscape:cy="607.41081"
     inkscape:document-units="px"
     inkscape:current-layer="layer1"
     showgrid="false"
     inkscape:window-width="1920"
     inkscape:window-height="1001"
     inkscape:window-x="-9"
     inkscape:window-y="-9"
     inkscape:window-maximized="1" />
  <metadata
     id="metadata7">
    <rdf:RDF>
      <cc:Work
         rdf:about="">
        <dc:format>image/svg+xml</dc:format>
        <dc:type
           rdf:resource="http://purl.org/dc/dcmitype/StillImage" />
        <dc:title></dc:title>
      </cc:Work>
    </rdf:RDF>
  </metadata>
  <g
     inkscape:label="Layer 1"
     inkscape:groupmode="layer"
     id="layer1"
     transform="translate(0,-999.21267)">
    <g
       style="font-style:normal;font-weight:normal;font-size:40px;line-height:125%;font-family:sans-serif;letter-spacing:0px;word-spacing:0px;fill:#000000;fill-opacity:1;stroke:none;stroke-width:1px;stroke-linecap:butt;stroke-linejoin:miter;stroke-opacity:1"
       id="text4136"
       transform="translate(1457.1429,580)">
      <path
         d="m -1418.4114,467.04792 0,-23.92 c 0,-4.96 0.64,-5.64 4.4,-5.76 l 0,-1.52 -10.76,0 0,1.52 c 3.4,0.12 3.96,0.76 3.96,6.04 l 0,15.76 -0.16,0 -17.48,-23.32 -7.92,0 0,1.52 c 3.44,0.16 4,1.24 4,5.76 l 0,16.24 c 0,4.96 -0.64,5.64 -4.4,5.76 l 0,1.52 10.76,0 0,-1.52 c -3.4,-0.12 -3.96,-0.76 -3.96,-6.04 l 0,-17.08 0.16,0 19,25.04 2.4,0 z"
         style="font-style:normal;font-variant:normal;font-weight:bold;font-stretch:normal;font-family:'Libre Baskerville';-inkscape-font-specification:'Libre Baskerville Bold'"
         id="path4215"
         inkscape:connector-curvature="0" />
    </g>
    <g
       style="font-style:normal;font-weight:normal;font-size:40px;line-height:125%;font-family:sans-serif;letter-spacing:0px;word-spacing:0px;fill:#000000;fill-opacity:1;stroke:none;stroke-width:1px;stroke-linecap:butt;stroke-linejoin:miter;stroke-opacity:1"
       id="text4136-7"
       transform="translate(1457.1429,580)">
      <path
         d="m -1404.2086,438.26934 c 0,-0.4 0.24,-0.68 0.68,-0.68 l 5.08,0 c 5.44,0 7.48,1.08 8.12,5.32 l 1.4,0 -0.36,-7.04 -23.12,0 0,1.52 c 3.44,0.16 4,0.84 4,4.56 l 0,18.64 c 0,3.76 -0.64,4.44 -4.4,4.56 l 0,1.52 24.84,0 0.6,-7.88 -1.52,0 c -1.04,4.72 -3.04,6.16 -8.68,6.16 -5.04,0 -6.64,-1.08 -6.64,-4.56 l 0,-9.04 c 6,0.04 7.56,1.52 7.56,4.72 l 1.4,0 0,-10.92 -1.4,0 c 0,3.24 -1.8,4.6 -7.56,4.6 l 0,-11.48 z"
         style="font-style:normal;font-variant:normal;font-weight:bold;font-stretch:normal;font-family:'Libre Baskerville';-inkscape-font-specification:'Libre Baskerville Bold'"
         id="path4212"
         inkscape:connector-curvature="0" />
    </g>
    <g
       style="font-style:normal;font-weight:normal;font-size:40px;line-height:125%;font-family:sans-serif;letter-spacing:0px;word-spacing:0px;fill:#000000;fill-opacity:1;stroke:none;stroke-width:1px;stroke-linecap:butt;stroke-linejoin:miter;stroke-opacity:1"
       id="text4136-8"
       transform="translate(1457.1429,580)">
      <path
         d="m -1373.1803,435.09984 c -9.36,0 -16.64,7 -16.64,16.04 0,8.68 7.36,15.56 16.64,15.56 9.28,0 16.64,-6.88 16.64,-15.56 0,-9.04 -7.28,-16.04 -16.64,-16.04 z m 0,29.4 c -7.04,0 -11.44,-5.12 -11.44,-13.24 0,-8.56 4.4,-13.96 11.44,-13.96 7.04,0 11.44,5.4 11.44,13.96 0,8.12 -4.44,13.24 -11.44,13.24 z"
         style="font-style:normal;font-variant:normal;font-weight:bold;font-stretch:normal;font-family:'Libre Baskerville';-inkscape-font-specification:'Libre Baskerville Bold'"
         id="path4209"
         inkscape:connector-curvature="0" />
    </g>
    <path
       style="fill:#000000;fill-opacity:1;stroke:#000000;stroke-opacity:1"
       d="m 106.42856,1031.6479 a 2.4107144,2.3214285 0 0 1 -2.4107,2.3215 2.4107144,2.3214285 0 0 1 -2.4107,-2.3215 2.4107144,2.3214285 0 0 1 2.4107,-2.3214 2.4107144,2.3214285 0 0 1 2.4107,2.3214 z"
       id="path4166"
       inkscape:connector-curvature="0" />
    <g
       style="font-style:normal;font-weight:normal;font-size:40px;line-height:125%;font-family:sans-serif;letter-spacing:0px;word-spacing:0px;fill:#000000;fill-opacity:1;stroke:none;stroke-width:1px;stroke-linecap:butt;stroke-linejoin:miter;stroke-opacity:1"
       id="text4136-6"
       transform="translate(1457.1429,580)">
      <path
         d="m -1334.6169,467.08625 c 7.0306,0 10.2956,-0.0582 13.1622,-0.0582 l 0.1578,-8.1418 c 0.053,-2.75948 0.68,-3.56 3.28,-3.56 l 0,-1.52 -11.36,0 0,1.52 c 2.84,0 4,0.84 4,3.96 0,2.96 -3,5.64 -8.16,5.64 -6.72,0 -10.44,-4.8 -10.44,-13.36 0,-8.72 3.84,-14 10.32,-14 4.32,0 8.56,2.32 8.56,7.52 l 1.92,0 0.52,-9.2 -1.4,0 -0.84,2.48 c -3.28,-2.04 -5.92,-2.88 -9.12,-2.88 -9.08,0 -15.32,6.64 -15.32,16.32 0,9.32 5.68,15.28 14.72,15.28 z"
         style="font-style:normal;font-variant:normal;font-weight:bold;font-stretch:normal;font-family:'Libre Baskerville';-inkscape-font-specification:'Libre Baskerville Bold'"
         id="path4205"
         inkscape:connector-curvature="0"
         sodipodi:nodetypes="ccsccccsssscccccssc" />
    </g>
    <g
       style="font-style:normal;font-weight:normal;font-size:40px;line-height:125%;font-family:sans-serif;letter-spacing:0px;word-spacing:0px;fill:#000000;fill-opacity:1;stroke:none;stroke-width:1px;stroke-linecap:butt;stroke-linejoin:miter;stroke-opacity:1"
       id="text4136-7-0"
       transform="translate(1457.1429,580)">
      <path
         d="m -1311.3742,438.30767 c 0,-0.4 0.24,-0.68 0.68,-0.68 l 5.08,0 c 5.44,0 7.48,1.08 8.12,5.32 l 1.4,0 -0.36,-7.04 -23.12,0 0,1.52 c 3.44,0.16 4,0.84 4,4.56 l 0,18.64 c 0,3.76 -0.64,4.44 -4.4,4.56 l 0,1.52 24.84,0 0.6,-7.88 -1.52,0 c -1.04,4.72 -3.04,6.16 -8.68,6.16 -5.04,0 -6.64,-1.08 -6.64,-4.56 l 0,-9.04 c 6,0.04 7.56,1.52 7.56,4.72 l 1.4,0 0,-10.92 -1.4,0 c 0,3.24 -1.8,4.6 -7.56,4.6 l 0,-11.48 z"
         style="font-style:normal;font-variant:normal;font-weight:bold;font-stretch:normal;font-family:'Libre Baskerville';-inkscape-font-specification:'Libre Baskerville Bold'"
         id="path4202"
         inkscape:connector-curvature="0" />
    </g>
    <g
       style="font-style:normal;font-weight:normal;font-size:40px;line-height:125%;font-family:sans-serif;letter-spacing:0px;word-spacing:0px;fill:#000000;fill-opacity:1;stroke:none;stroke-width:1px;stroke-linecap:butt;stroke-linejoin:miter;stroke-opacity:1"
       id="text4136-8-2"
       transform="translate(1457.1429,580)">
      <path
         d="m -1280.3459,435.13817 c -9.36,0 -16.64,7 -16.64,16.04 0,8.68 7.36,15.56 16.64,15.56 9.28,0 16.64,-6.88 16.64,-15.56 0,-9.04 -7.28,-16.04 -16.64,-16.04 z m 0,29.4 c -7.04,0 -11.44,-5.12 -11.44,-13.24 0,-8.56 4.4,-13.96 11.44,-13.96 7.04,0 11.44,5.4 11.44,13.96 0,8.12 -4.44,13.24 -11.44,13.24 z"
         style="font-style:normal;font-variant:normal;font-weight:bold;font-stretch:normal;font-family:'Libre Baskerville';-inkscape-font-specification:'Libre Baskerville Bold'"
         id="path4199"
         inkscape:connector-curvature="0" />
    </g>
    <text
       xml:space="preserve"
       style="font-style:normal;font-weight:normal;font-size:2.45229411px;line-height:125%;font-family:sans-serif;letter-spacing:0px;word-spacing:0px;fill:#000000;fill-opacity:1;stroke:none;stroke-width:1px;stroke-linecap:butt;stroke-linejoin:miter;stroke-opacity:1"
       x="194.83633"
       y="1018.3442"
       id="text4217"
       sodipodi:linespacing="125%"><tspan
         sodipodi:role="line"
         id="tspan4219"
         x="194.83633"
         y="1018.3442">R</tspan></text>
    <circle
       style="fill:none;fill-opacity:1;stroke:#000000;stroke-width:0.58427495;stroke-opacity:1"
       id="path4221"
       cx="195.67203"
       cy="1017.495"
       r="1.6599566" />
  </g>
</svg>
